<svg width="24" height="24" viewBox="0 0 24 24" fill="none" xmlns="http://www.w3.org/2000/svg">
<path fill-rule="evenodd" clip-rule="evenodd" d="M9.59102 15.2068C13.28 15.2068 16.433 15.7658 16.433 17.9988C16.433 20.2318 13.301 20.8068 9.59102 20.8068C5.90102 20.8068 2.74902 20.2528 2.74902 18.0188C2.74902 15.7848 5.88002 15.2068 9.59102 15.2068Z" stroke="#949596" stroke-width="1.5" stroke-linecap="round" stroke-linejoin="round"/>
<path fill-rule="evenodd" clip-rule="evenodd" d="M9.59108 12.0198C7.16908 12.0198 5.20508 10.0568 5.20508 7.63482C5.20508 5.21282 7.16908 3.24982 9.59108 3.24982C12.0121 3.24982 13.9761 5.21282 13.9761 7.63482C13.9851 10.0478 12.0351 12.0108 9.62208 12.0198H9.59108Z" stroke="#949596" stroke-width="1.5" stroke-linecap="round" stroke-linejoin="round"/>
<path d="M16.4824 10.8816C18.0834 10.6566 19.3164 9.28265 19.3194 7.61965C19.3194 5.98065 18.1244 4.62065 16.5574 4.36365" stroke="#949596" stroke-width="1.5" stroke-linecap="round" stroke-linejoin="round"/>
<path d="M18.5947 14.7322C20.1457 14.9632 21.2287 15.5072 21.2287 16.6272C21.2287 17.3982 20.7187 17.8982 19.8947 18.2112" stroke="#949596" stroke-width="1.5" stroke-linecap="round" stroke-linejoin="round"/>
</svg>
