<svg width="24" height="24" viewBox="0 0 24 24" fill="none" xmlns="http://www.w3.org/2000/svg">
<path d="M12.0001 11.6924C12.5456 11.711 13.0842 11.5662 13.5469 11.2767C14.0096 10.9871 14.3753 10.5659 14.597 10.0672C14.8187 9.56838 14.8864 9.01476 14.7913 8.47726C14.6963 7.93977 14.4428 7.44293 14.0635 7.05043C13.6842 6.65794 13.1963 6.3877 12.6624 6.27437C12.1284 6.16103 11.5728 6.20977 11.0668 6.41433C10.5607 6.61889 10.1273 6.96994 9.82212 7.42248C9.51693 7.87501 9.35387 8.4084 9.35385 8.95422C9.34266 9.66795 9.61495 10.357 10.111 10.8703C10.6071 11.3836 11.2864 11.6792 12.0001 11.6924ZM12.0001 7.34126C12.3232 7.32231 12.6445 7.40081 12.9224 7.56658C13.2003 7.73236 13.4221 7.97777 13.5589 8.27103C13.6958 8.56428 13.7414 8.89188 13.69 9.21138C13.6385 9.53088 13.4922 9.82755 13.2702 10.063C13.0482 10.2984 12.7605 10.4617 12.4446 10.5318C12.1287 10.6019 11.799 10.5755 11.4982 10.456C11.1974 10.3366 10.9395 10.1296 10.7577 9.86179C10.576 9.59402 10.4788 9.27785 10.4788 8.95424C10.4675 8.53884 10.6212 8.13589 10.9064 7.83358C11.1915 7.53127 11.5847 7.35425 12.0001 7.34126Z" fill="#CCCCCC"/>
<path d="M8.79492 11.3309C7.91364 11.8235 7.15545 12.5094 6.57731 13.3371C5.99916 14.1647 5.6161 15.1127 5.4569 16.1096C5.4226 16.3171 5.43388 16.5295 5.48998 16.7322C5.54607 16.9348 5.64563 17.1229 5.78173 17.2831C5.91425 17.4399 6.0793 17.5658 6.26542 17.6523C6.45154 17.7387 6.65426 17.7836 6.85948 17.7838H17.1409C17.3461 17.7836 17.5488 17.7387 17.7349 17.6523C17.921 17.5658 18.0861 17.4399 18.2186 17.2831C18.3547 17.1229 18.4543 16.9348 18.5104 16.7322C18.5665 16.5295 18.5777 16.3171 18.5434 16.1096C18.3842 15.1127 18.0012 14.1647 17.423 13.3371C16.8449 12.5094 16.0867 11.8235 15.2054 11.3309C15.0962 11.2698 14.9696 11.2469 14.8459 11.2658C14.7221 11.2847 14.6082 11.3442 14.5221 11.4351C14.1984 11.7793 13.8076 12.0536 13.3739 12.2411C12.9402 12.4286 12.4727 12.5253 12.0002 12.5253C11.5277 12.5253 11.0601 12.4286 10.6264 12.2411C10.1927 12.0536 9.80196 11.7793 9.47825 11.4351C9.39217 11.3442 9.27823 11.2846 9.15447 11.2657C9.0307 11.2469 8.90418 11.2698 8.79492 11.3309ZM12.0002 13.6503C13.1045 13.6473 14.1712 13.2484 15.0066 12.5261C15.6499 12.9513 16.1978 13.5056 16.6155 14.1539C17.0333 14.8021 17.3117 15.5301 17.4331 16.2916C17.441 16.3381 17.4386 16.3857 17.4262 16.4311C17.4138 16.4766 17.3917 16.5188 17.3613 16.5548C17.3344 16.5872 17.3008 16.6133 17.2627 16.6313C17.2246 16.6493 17.183 16.6586 17.1409 16.6588H6.85949C6.81737 16.6586 6.77579 16.6493 6.7377 16.6313C6.6996 16.6133 6.66592 16.5872 6.63903 16.5548C6.60867 16.5188 6.58652 16.4766 6.57412 16.4311C6.56173 16.3857 6.55938 16.3381 6.56726 16.2916C6.68869 15.5301 6.9671 14.8021 7.38482 14.1539C7.80254 13.5056 8.35045 12.9513 8.99377 12.5261C9.82916 13.2484 10.8958 13.6473 12.0002 13.6503Z" fill="#CCCCCC"/>
<path d="M2.625 5.90735C2.62634 5.07709 2.95697 4.28127 3.54434 3.69448C4.13172 3.10769 4.92787 2.77786 5.75812 2.77734H8.11964V1.65234H5.75812C4.62961 1.65322 3.54752 2.10169 2.74924 2.89938C1.95097 3.69707 1.5017 4.77883 1.5 5.90735V8.12292H2.625V5.90735Z" fill="#CCCCCC"/>
<path d="M21.3755 18.0926C21.3741 18.9229 21.0435 19.7187 20.4561 20.3055C19.8688 20.8923 19.0726 21.2221 18.2424 21.2227H15.8809V22.3477H18.2424C19.3709 22.3468 20.453 21.8983 21.2512 21.1006C22.0495 20.3029 22.4988 19.2212 22.5005 18.0926V15.8771H21.3755V18.0926Z" fill="#CCCCCC"/>
<path d="M5.75812 22.3477H8.11964V21.2227H5.75812C4.92787 21.2221 4.13172 20.8923 3.54434 20.3055C2.95697 19.7187 2.62634 18.9229 2.625 18.0926V15.8771H1.5V18.0926C1.5017 19.2212 1.95097 20.3029 2.74924 21.1006C3.54752 21.8983 4.62961 22.3468 5.75812 22.3477Z" fill="#CCCCCC"/>
<path d="M18.2424 1.65234H15.8809V2.77734H18.2424C19.0726 2.77786 19.8688 3.10769 20.4561 3.69448C21.0435 4.28127 21.3741 5.07709 21.3755 5.90735V8.12292H22.5005V5.90735C22.4988 4.77883 22.0495 3.69707 21.2512 2.89938C20.453 2.10169 19.3709 1.65322 18.2424 1.65234Z" fill="#CCCCCC"/>
</svg>
