<svg width="19" height="18" viewBox="0 0 19 18" fill="none" xmlns="http://www.w3.org/2000/svg">
<path fill-rule="evenodd" clip-rule="evenodd" d="M7.16418 2.52196C9.37122 0.409346 12.9398 0.409346 15.1468 2.52196C17.3677 4.64786 17.3677 8.10523 15.1468 10.2311L9.18577 15.9371C7.61823 17.4376 5.08649 17.4376 3.51894 15.9371C1.93752 14.4234 1.93752 11.9585 3.51894 10.4447L9.39421 4.82079C10.3223 3.93243 11.8172 3.93243 12.7452 4.82079C13.6872 5.72242 13.6872 7.19487 12.7452 8.0965L6.82709 13.7615C6.60267 13.9763 6.2466 13.9685 6.03178 13.7441C5.81697 13.5197 5.82475 13.1636 6.04917 12.9488L11.9673 7.28381C12.4465 6.82515 12.4465 6.09213 11.9673 5.63348C11.4743 5.16154 10.6652 5.16154 10.1721 5.63348L4.29686 11.2574C3.17821 12.3282 3.17821 14.0537 4.29686 15.1244C5.42938 16.2085 7.27533 16.2085 8.40785 15.1244L14.3689 9.41844C16.127 7.73551 16.127 5.01757 14.3689 3.33465C12.5969 1.63845 9.71412 1.63845 7.9421 3.33465L3.13896 7.9323C2.91454 8.14712 2.55847 8.13933 2.34366 7.91492C2.12884 7.6905 2.13662 7.33443 2.36104 7.11961L7.16418 2.52196Z" fill="#1C274C"/>
</svg>
