<svg width="14" height="14" viewBox="0 0 14 14" fill="none" xmlns="http://www.w3.org/2000/svg">
<g clip-path="url(#clip0_56_3172)">
<path d="M6.99935 3.64582C7.24097 3.64582 7.43685 3.8417 7.43685 4.08332V7.58332C7.43685 7.82495 7.24097 8.02082 6.99935 8.02082C6.75772 8.02082 6.56185 7.82495 6.56185 7.58332V4.08332C6.56185 3.8417 6.75772 3.64582 6.99935 3.64582Z" fill="#CCCCCC"/>
<path d="M6.99935 9.91666C7.32151 9.91666 7.58268 9.65549 7.58268 9.33332C7.58268 9.01116 7.32151 8.74999 6.99935 8.74999C6.67718 8.74999 6.41602 9.01116 6.41602 9.33332C6.41602 9.65549 6.67718 9.91666 6.99935 9.91666Z" fill="#CCCCCC"/>
<path fill-rule="evenodd" clip-rule="evenodd" d="M0.728516 6.99999C0.728516 3.5367 3.53606 0.729156 6.99935 0.729156C10.4626 0.729156 13.2702 3.5367 13.2702 6.99999C13.2702 10.4633 10.4626 13.2708 6.99935 13.2708C3.53606 13.2708 0.728516 10.4633 0.728516 6.99999ZM6.99935 1.60416C4.01931 1.60416 1.60352 4.01995 1.60352 6.99999C1.60352 9.98003 4.01931 12.3958 6.99935 12.3958C9.97939 12.3958 12.3952 9.98003 12.3952 6.99999C12.3952 4.01995 9.97939 1.60416 6.99935 1.60416Z" fill="#CCCCCC"/>
</g>
<defs>
<clipPath id="clip0_56_3172">
<rect width="14" height="14" fill="white"/>
</clipPath>
</defs>
</svg>
