<svg width="18" height="18" viewBox="0 0 18 18" fill="none" xmlns="http://www.w3.org/2000/svg">
<path d="M15.2337 9.48545L15.6219 8.03657C16.0751 6.34526 16.3017 5.4996 16.1311 4.76777C15.9963 4.18993 15.6933 3.66501 15.2602 3.25941C14.7118 2.74571 13.8661 2.51912 12.1748 2.06594C10.4835 1.61275 9.63783 1.38616 8.906 1.5568C8.32815 1.69153 7.80324 1.99459 7.39763 2.42765C6.95782 2.89724 6.72846 3.58468 6.38716 4.83421C6.32983 5.04409 6.26935 5.26982 6.20417 5.51304L6.20416 5.51308L5.81594 6.96197C5.36275 8.65328 5.13616 9.49894 5.3068 10.2308C5.44153 10.8086 5.74459 11.3335 6.17765 11.7391C6.72611 12.2528 7.57177 12.4794 9.26307 12.9326L9.26308 12.9326C10.7875 13.3411 11.625 13.5655 12.3112 13.4808C12.3864 13.4715 12.4597 13.4586 12.5319 13.4417C13.1097 13.307 13.6346 13.0039 14.0402 12.5709C14.5539 12.0224 14.7805 11.1768 15.2337 9.48545Z" stroke="#101010"/>
<path d="M12.3112 13.4806C12.1549 13.9594 11.8799 14.3926 11.5102 14.7389C10.9618 15.2526 10.1161 15.4792 8.42479 15.9324C6.73348 16.3856 5.88783 16.6122 5.156 16.4415C4.57815 16.3068 4.05324 16.0037 3.64763 15.5707C3.13394 15.0222 2.90735 14.1765 2.45416 12.4852L2.06594 11.0363C1.61275 9.34503 1.38616 8.49937 1.5568 7.76754C1.69153 7.1897 1.99459 6.66479 2.42765 6.25918C2.97611 5.74549 3.82177 5.51889 5.51308 5.06571C5.83306 4.97997 6.12276 4.90235 6.38716 4.83398" stroke="#101010"/>
<path d="M8.83203 7.5L12.4543 8.47057" stroke="#101010" stroke-linecap="round"/>
<path d="M8.25 9.67334L10.4233 10.2557" stroke="#101010" stroke-linecap="round"/>
</svg>
