<svg width="173" height="149" viewBox="0 0 173 149" fill="none" xmlns="http://www.w3.org/2000/svg">
<path d="M115.48 29.3398L123.52 34.9798L88.6597 85.2598H80.6197L61.1797 58.0198L69.2197 50.5198L84.6397 64.9198L115.48 29.3398Z" fill="#49CF7E"/>
<path d="M31.6491 134.705H33.7457C34.6321 134.705 35.4181 134.9 36.1037 135.29C36.7931 135.676 37.3329 136.22 37.723 136.92C38.117 137.617 38.3139 138.428 38.3139 139.352C38.3139 140.269 38.117 141.074 37.723 141.767C37.3329 142.46 36.7931 143.002 36.1037 143.392C35.4181 143.778 34.6321 143.972 33.7457 143.972H31.6491C30.7628 143.972 29.9749 143.78 29.2855 143.398C28.5961 143.011 28.0545 142.473 27.6605 141.784C27.2704 141.095 27.0753 140.29 27.0753 139.369C27.0753 138.441 27.2723 137.627 27.6662 136.926C28.0601 136.225 28.5999 135.68 29.2855 135.29C29.9749 134.9 30.7628 134.705 31.6491 134.705ZM31.6491 136.222C31.0431 136.222 30.526 136.348 30.098 136.602C29.67 136.852 29.3423 137.212 29.1151 137.682C28.8878 138.152 28.7741 138.714 28.7741 139.369C28.7741 140.009 28.8878 140.561 29.1151 141.023C29.3461 141.481 29.6757 141.835 30.1037 142.085C30.5317 142.331 31.0469 142.455 31.6491 142.455H33.7514C34.3537 142.455 34.867 142.331 35.2912 142.085C35.7192 141.835 36.045 141.479 36.2685 141.017C36.4957 140.551 36.6094 139.996 36.6094 139.352C36.6094 138.705 36.4957 138.148 36.2685 137.682C36.045 137.212 35.7192 136.852 35.2912 136.602C34.867 136.348 34.3537 136.222 33.7514 136.222H31.6491ZM33.5639 133.159V145.477H31.8423V133.159H33.5639ZM42.9006 145.193C42.3475 145.193 41.8475 145.091 41.4006 144.886C40.9536 144.678 40.5994 144.377 40.3381 143.983C40.0805 143.589 39.9517 143.106 39.9517 142.534C39.9517 142.042 40.0464 141.636 40.2358 141.318C40.4252 141 40.6809 140.748 41.0028 140.562C41.3248 140.377 41.6847 140.237 42.0824 140.142C42.4801 140.047 42.8854 139.975 43.2983 139.926C43.821 139.866 44.2453 139.816 44.571 139.778C44.8968 139.737 45.1335 139.67 45.2812 139.58C45.429 139.489 45.5028 139.341 45.5028 139.136V139.097C45.5028 138.6 45.3627 138.216 45.0824 137.943C44.8059 137.67 44.393 137.534 43.8438 137.534C43.2718 137.534 42.821 137.661 42.4915 137.915C42.1657 138.165 41.9403 138.443 41.8153 138.75L40.2188 138.386C40.4081 137.856 40.6847 137.428 41.0483 137.102C41.4157 136.773 41.8381 136.534 42.3153 136.386C42.7926 136.235 43.2945 136.159 43.821 136.159C44.1695 136.159 44.5388 136.201 44.929 136.284C45.3229 136.364 45.6903 136.511 46.0312 136.727C46.3759 136.943 46.6581 137.252 46.8778 137.653C47.0975 138.051 47.2074 138.568 47.2074 139.205V145H45.5483V143.807H45.4801C45.3703 144.027 45.2055 144.242 44.9858 144.455C44.7661 144.667 44.4839 144.843 44.1392 144.983C43.7945 145.123 43.3816 145.193 42.9006 145.193ZM43.2699 143.83C43.7396 143.83 44.1411 143.737 44.4744 143.551C44.8116 143.366 45.0672 143.123 45.2415 142.824C45.4195 142.521 45.5085 142.197 45.5085 141.852V140.727C45.4479 140.788 45.3305 140.845 45.1562 140.898C44.9858 140.947 44.7907 140.991 44.571 141.028C44.3513 141.062 44.1373 141.095 43.929 141.125C43.7206 141.152 43.5464 141.174 43.4062 141.193C43.0767 141.235 42.7756 141.305 42.5028 141.403C42.2339 141.502 42.018 141.644 41.8551 141.83C41.696 142.011 41.6165 142.254 41.6165 142.557C41.6165 142.977 41.7718 143.295 42.0824 143.511C42.393 143.723 42.7888 143.83 43.2699 143.83ZM51.1349 142.619L54.9815 136.273H56.8111V145H55.1463V138.648L51.3168 145H49.4702V136.273H51.1349V142.619ZM54.2543 133.318H55.652C55.652 133.958 55.4247 134.479 54.9702 134.881C54.5194 135.278 53.9096 135.477 53.1406 135.477C52.3755 135.477 51.7675 135.278 51.3168 134.881C50.866 134.479 50.6406 133.958 50.6406 133.318H52.0327C52.0327 133.602 52.116 133.854 52.2827 134.074C52.4493 134.29 52.7353 134.398 53.1406 134.398C53.5384 134.398 53.8224 134.29 53.9929 134.074C54.1671 133.858 54.2543 133.606 54.2543 133.318ZM58.4077 145L58.402 143.528H58.7145C58.9569 143.528 59.1596 143.477 59.3224 143.375C59.4891 143.269 59.6255 143.091 59.7315 142.841C59.8376 142.591 59.919 142.246 59.9759 141.807C60.0327 141.364 60.0743 140.807 60.1009 140.136L60.2543 136.273H66.3452V145H64.6804V137.739H61.8281L61.6918 140.705C61.6577 141.424 61.5838 142.053 61.4702 142.591C61.3603 143.129 61.1993 143.578 60.9872 143.938C60.7751 144.294 60.5024 144.561 60.169 144.739C59.8357 144.913 59.4304 145 58.9531 145H58.4077ZM72.3281 142.693H74.0668C74.0895 143.049 74.2505 143.324 74.5497 143.517C74.8527 143.71 75.2448 143.807 75.7259 143.807C76.2145 143.807 76.6312 143.703 76.9759 143.494C77.3205 143.282 77.4929 142.955 77.4929 142.511C77.4929 142.246 77.4266 142.015 77.294 141.818C77.1652 141.617 76.9815 141.462 76.7429 141.352C76.508 141.242 76.2296 141.188 75.9077 141.188H74.4872V139.852H75.9077C76.3887 139.852 76.7486 139.742 76.9872 139.523C77.2259 139.303 77.3452 139.028 77.3452 138.699C77.3452 138.343 77.2164 138.057 76.9588 137.841C76.705 137.621 76.3509 137.511 75.8963 137.511C75.4342 137.511 75.0497 137.616 74.7429 137.824C74.4361 138.028 74.2751 138.294 74.2599 138.619H72.544C72.5554 138.131 72.7031 137.703 72.9872 137.335C73.2751 136.964 73.6615 136.676 74.1463 136.472C74.6349 136.263 75.1899 136.159 75.8111 136.159C76.4588 136.159 77.0194 136.263 77.4929 136.472C77.9664 136.68 78.3319 136.968 78.5895 137.335C78.8509 137.703 78.9815 138.125 78.9815 138.602C78.9815 139.083 78.8376 139.477 78.5497 139.784C78.2656 140.087 77.8944 140.305 77.4361 140.438V140.528C77.7732 140.551 78.0724 140.653 78.3338 140.835C78.5952 141.017 78.7997 141.258 78.9474 141.557C79.0952 141.856 79.169 142.195 79.169 142.574C79.169 143.108 79.0213 143.57 78.7259 143.96C78.4342 144.35 78.0289 144.652 77.5099 144.864C76.9948 145.072 76.4058 145.176 75.7429 145.176C75.099 145.176 74.5213 145.076 74.0099 144.875C73.5024 144.67 73.099 144.383 72.7997 144.011C72.5043 143.64 72.3471 143.201 72.3281 142.693ZM83.4631 145.193C82.91 145.193 82.41 145.091 81.9631 144.886C81.5161 144.678 81.1619 144.377 80.9006 143.983C80.643 143.589 80.5142 143.106 80.5142 142.534C80.5142 142.042 80.6089 141.636 80.7983 141.318C80.9877 141 81.2434 140.748 81.5653 140.562C81.8873 140.377 82.2472 140.237 82.6449 140.142C83.0426 140.047 83.4479 139.975 83.8608 139.926C84.3835 139.866 84.8078 139.816 85.1335 139.778C85.4593 139.737 85.696 139.67 85.8438 139.58C85.9915 139.489 86.0653 139.341 86.0653 139.136V139.097C86.0653 138.6 85.9252 138.216 85.6449 137.943C85.3684 137.67 84.9555 137.534 84.4062 137.534C83.8343 137.534 83.3835 137.661 83.054 137.915C82.7282 138.165 82.5028 138.443 82.3778 138.75L80.7812 138.386C80.9706 137.856 81.2472 137.428 81.6108 137.102C81.9782 136.773 82.4006 136.534 82.8778 136.386C83.3551 136.235 83.857 136.159 84.3835 136.159C84.732 136.159 85.1013 136.201 85.4915 136.284C85.8854 136.364 86.2528 136.511 86.5938 136.727C86.9384 136.943 87.2206 137.252 87.4403 137.653C87.66 138.051 87.7699 138.568 87.7699 139.205V145H86.1108V143.807H86.0426C85.9328 144.027 85.768 144.242 85.5483 144.455C85.3286 144.667 85.0464 144.843 84.7017 144.983C84.357 145.123 83.9441 145.193 83.4631 145.193ZM83.8324 143.83C84.3021 143.83 84.7036 143.737 85.0369 143.551C85.3741 143.366 85.6297 143.123 85.804 142.824C85.982 142.521 86.071 142.197 86.071 141.852V140.727C86.0104 140.788 85.893 140.845 85.7188 140.898C85.5483 140.947 85.3532 140.991 85.1335 141.028C84.9138 141.062 84.6998 141.095 84.4915 141.125C84.2831 141.152 84.1089 141.174 83.9688 141.193C83.6392 141.235 83.3381 141.305 83.0653 141.403C82.7964 141.502 82.5805 141.644 82.4176 141.83C82.2585 142.011 82.179 142.254 82.179 142.557C82.179 142.977 82.3343 143.295 82.6449 143.511C82.9555 143.723 83.3513 143.83 83.8324 143.83ZM95.6122 136.273V137.739H91.7088V145H90.0327V136.273H95.6122ZM97.4077 148.273V136.273H99.0668V137.688H99.2088C99.3073 137.506 99.4493 137.295 99.6349 137.057C99.8205 136.818 100.078 136.61 100.408 136.432C100.737 136.25 101.173 136.159 101.714 136.159C102.419 136.159 103.048 136.337 103.601 136.693C104.154 137.049 104.588 137.562 104.902 138.233C105.22 138.903 105.379 139.71 105.379 140.653C105.379 141.597 105.222 142.405 104.908 143.08C104.593 143.75 104.161 144.267 103.612 144.631C103.063 144.991 102.436 145.17 101.732 145.17C101.201 145.17 100.768 145.081 100.43 144.903C100.097 144.725 99.8357 144.517 99.6463 144.278C99.4569 144.04 99.3111 143.828 99.2088 143.642H99.1065V148.273H97.4077ZM99.0724 140.636C99.0724 141.25 99.1615 141.788 99.3395 142.25C99.5175 142.712 99.7751 143.074 100.112 143.335C100.449 143.593 100.862 143.722 101.351 143.722C101.858 143.722 102.283 143.587 102.624 143.318C102.964 143.045 103.222 142.676 103.396 142.21C103.574 141.744 103.663 141.22 103.663 140.636C103.663 140.061 103.576 139.544 103.402 139.085C103.232 138.627 102.974 138.265 102.629 138C102.288 137.735 101.862 137.602 101.351 137.602C100.858 137.602 100.442 137.729 100.101 137.983C99.7637 138.237 99.508 138.591 99.3338 139.045C99.1596 139.5 99.0724 140.03 99.0724 140.636ZM108.06 148.273C107.806 148.273 107.575 148.252 107.366 148.21C107.158 148.172 107.003 148.131 106.901 148.085L107.31 146.693C107.62 146.777 107.897 146.813 108.139 146.801C108.382 146.79 108.596 146.699 108.781 146.528C108.971 146.358 109.137 146.08 109.281 145.693L109.491 145.114L106.298 136.273H108.116L110.327 143.045H110.418L112.628 136.273H114.452L110.855 146.165C110.688 146.619 110.476 147.004 110.219 147.318C109.961 147.636 109.654 147.875 109.298 148.034C108.942 148.193 108.529 148.273 108.06 148.273ZM115.491 145L118.872 140.534L115.531 136.273H117.509L120.207 139.898H120.815V136.273H122.514V139.898H123.105L125.804 136.273H127.781L124.457 140.534L127.821 145H125.804L123.082 141.364H122.514V145H120.815V141.364H120.247L117.509 145H115.491ZM132.966 145.176C132.106 145.176 131.366 144.992 130.744 144.625C130.127 144.254 129.65 143.733 129.312 143.062C128.979 142.388 128.812 141.598 128.812 140.693C128.812 139.799 128.979 139.011 129.312 138.33C129.65 137.648 130.119 137.116 130.722 136.733C131.328 136.35 132.036 136.159 132.847 136.159C133.339 136.159 133.816 136.241 134.278 136.403C134.741 136.566 135.155 136.822 135.523 137.17C135.89 137.519 136.18 137.972 136.392 138.528C136.604 139.081 136.71 139.754 136.71 140.545V141.148H129.773V139.875H135.045C135.045 139.428 134.955 139.032 134.773 138.688C134.591 138.339 134.335 138.064 134.006 137.864C133.68 137.663 133.297 137.562 132.858 137.562C132.381 137.562 131.964 137.68 131.608 137.915C131.256 138.146 130.983 138.449 130.79 138.824C130.6 139.195 130.506 139.598 130.506 140.034V141.028C130.506 141.612 130.608 142.108 130.812 142.517C131.021 142.926 131.311 143.239 131.682 143.455C132.053 143.667 132.487 143.773 132.983 143.773C133.305 143.773 133.598 143.727 133.864 143.636C134.129 143.542 134.358 143.402 134.551 143.216C134.744 143.03 134.892 142.801 134.994 142.528L136.602 142.818C136.473 143.292 136.242 143.706 135.909 144.062C135.58 144.415 135.165 144.689 134.665 144.886C134.169 145.08 133.602 145.176 132.966 145.176ZM144.51 139.903V141.375H139.783V139.903H144.51ZM140.26 136.273V145H138.595V136.273H140.26ZM145.697 136.273V145H144.038V136.273H145.697Z" fill="#101010"/>
</svg>
