<svg width="173" height="181" viewBox="0 0 173 181" fill="none" xmlns="http://www.w3.org/2000/svg">
            <path d="M86.5 7.5C57.25 7.5 34 30.75 34 60C34 89.25 57.25 112.5 86.5 112.5C115.75 112.5 139 89.25 139 60C139 30.75 115.75 7.5 86.5 7.5ZM86.5 105C61.75 105 41.5 84.75 41.5 60C41.5 35.25 61.75 15 86.5 15C111.25 15 131.5 35.25 131.5 60C131.5 84.75 111.25 105 86.5 105Z" fill="#CF5D49"/>
            <path d="M106.75 86.25L86.5 66L66.25 86.25L60.25 80.25L80.5 60L60.25 39.75L66.25 33.75L86.5 54L106.75 33.75L112.75 39.75L92.5 60L112.75 80.25L106.75 86.25Z" fill="#CF5D49"/>
            <path d="M55.9837 161.812V157.511H56.7507C57.0121 157.292 57.2564 156.979 57.4837 156.574C57.7109 156.169 57.9041 155.621 58.0632 154.932C58.2223 154.242 58.3321 153.358 58.3928 152.278L58.6655 147.364H65.8416V157.511H67.1598V161.795H65.478V159H57.6655V161.812H55.9837ZM58.8189 157.511H64.1598V148.875H60.2564L60.0746 152.278C60.0253 153.1 59.9439 153.839 59.8303 154.494C59.7204 155.15 59.5784 155.729 59.4041 156.233C59.2337 156.733 59.0386 157.159 58.8189 157.511ZM71.4865 159.193C70.9335 159.193 70.4335 159.091 69.9865 158.886C69.5395 158.678 69.1854 158.377 68.924 157.983C68.6664 157.589 68.5376 157.106 68.5376 156.534C68.5376 156.042 68.6323 155.636 68.8217 155.318C69.0111 155 69.2668 154.748 69.5888 154.562C69.9107 154.377 70.2706 154.237 70.6683 154.142C71.0661 154.047 71.4714 153.975 71.8842 153.926C72.407 153.866 72.8312 153.816 73.157 153.778C73.4827 153.737 73.7195 153.67 73.8672 153.58C74.0149 153.489 74.0888 153.341 74.0888 153.136V153.097C74.0888 152.6 73.9486 152.216 73.6683 151.943C73.3918 151.67 72.9789 151.534 72.4297 151.534C71.8577 151.534 71.407 151.661 71.0774 151.915C70.7517 152.165 70.5263 152.443 70.4013 152.75L68.8047 152.386C68.9941 151.856 69.2706 151.428 69.6342 151.102C70.0017 150.773 70.424 150.534 70.9013 150.386C71.3786 150.235 71.8804 150.159 72.407 150.159C72.7554 150.159 73.1248 150.201 73.5149 150.284C73.9089 150.364 74.2763 150.511 74.6172 150.727C74.9619 150.943 75.2441 151.252 75.4638 151.653C75.6835 152.051 75.7933 152.568 75.7933 153.205V159H74.1342V157.807H74.0661C73.9562 158.027 73.7914 158.242 73.5717 158.455C73.352 158.667 73.0698 158.843 72.7251 158.983C72.3804 159.123 71.9676 159.193 71.4865 159.193ZM71.8558 157.83C72.3255 157.83 72.727 157.737 73.0604 157.551C73.3975 157.366 73.6532 157.123 73.8274 156.824C74.0054 156.521 74.0945 156.197 74.0945 155.852V154.727C74.0339 154.788 73.9164 154.845 73.7422 154.898C73.5717 154.947 73.3767 154.991 73.157 155.028C72.9373 155.062 72.7232 155.095 72.5149 155.125C72.3066 155.152 72.1323 155.174 71.9922 155.193C71.6626 155.235 71.3615 155.305 71.0888 155.403C70.8198 155.502 70.6039 155.644 70.4411 155.83C70.282 156.011 70.2024 156.254 70.2024 156.557C70.2024 156.977 70.3577 157.295 70.6683 157.511C70.9789 157.723 71.3748 157.83 71.8558 157.83ZM83.9709 153.903V155.375H79.2436V153.903H83.9709ZM79.7209 150.273V159H78.0561V150.273H79.7209ZM85.1584 150.273V159H83.4993V150.273H85.1584ZM93.3459 153.903V155.375H88.6186V153.903H93.3459ZM89.0959 150.273V159H87.4311V150.273H89.0959ZM94.5334 150.273V159H92.8743V150.273H94.5334ZM98.0845 153.273H100.619C101.687 153.273 102.509 153.538 103.085 154.068C103.66 154.598 103.948 155.282 103.948 156.119C103.948 156.665 103.819 157.155 103.562 157.591C103.304 158.027 102.927 158.371 102.431 158.625C101.935 158.875 101.331 159 100.619 159H96.8061V150.273H98.4709V157.534H100.619C101.107 157.534 101.509 157.407 101.823 157.153C102.138 156.896 102.295 156.568 102.295 156.17C102.295 155.75 102.138 155.407 101.823 155.142C101.509 154.873 101.107 154.739 100.619 154.739H98.0845V153.273ZM105.187 159V150.273H106.886V159H105.187ZM112.927 159.176C112.067 159.176 111.326 158.992 110.705 158.625C110.088 158.254 109.611 157.733 109.273 157.062C108.94 156.388 108.773 155.598 108.773 154.693C108.773 153.799 108.94 153.011 109.273 152.33C109.611 151.648 110.08 151.116 110.683 150.733C111.289 150.35 111.997 150.159 112.808 150.159C113.3 150.159 113.777 150.241 114.239 150.403C114.701 150.566 115.116 150.822 115.484 151.17C115.851 151.519 116.141 151.972 116.353 152.528C116.565 153.081 116.671 153.754 116.671 154.545V155.148H109.734V153.875H115.006C115.006 153.428 114.915 153.032 114.734 152.688C114.552 152.339 114.296 152.064 113.967 151.864C113.641 151.663 113.258 151.562 112.819 151.562C112.342 151.562 111.925 151.68 111.569 151.915C111.217 152.146 110.944 152.449 110.751 152.824C110.561 153.195 110.467 153.598 110.467 154.034V155.028C110.467 155.612 110.569 156.108 110.773 156.517C110.982 156.926 111.272 157.239 111.643 157.455C112.014 157.667 112.448 157.773 112.944 157.773C113.266 157.773 113.559 157.727 113.825 157.636C114.09 157.542 114.319 157.402 114.512 157.216C114.705 157.03 114.853 156.801 114.955 156.528L116.563 156.818C116.434 157.292 116.203 157.706 115.87 158.062C115.54 158.415 115.126 158.689 114.626 158.886C114.129 159.08 113.563 159.176 112.927 159.176ZM30.8381 171.903V173.375H26.1108V171.903H30.8381ZM26.5881 168.273V177H24.9233V168.273H26.5881ZM32.0256 168.273V177H30.3665V168.273H32.0256ZM38.0597 177.176C37.1998 177.176 36.4593 176.992 35.8381 176.625C35.2206 176.254 34.7434 175.733 34.4062 175.062C34.0729 174.388 33.9062 173.598 33.9062 172.693C33.9062 171.799 34.0729 171.011 34.4062 170.33C34.7434 169.648 35.2131 169.116 35.8153 168.733C36.4214 168.35 37.1297 168.159 37.9403 168.159C38.4328 168.159 38.91 168.241 39.3722 168.403C39.8343 168.566 40.2491 168.822 40.6165 169.17C40.9839 169.519 41.2737 169.972 41.4858 170.528C41.6979 171.081 41.804 171.754 41.804 172.545V173.148H34.8665V171.875H40.1392C40.1392 171.428 40.0483 171.032 39.8665 170.688C39.6847 170.339 39.429 170.064 39.0994 169.864C38.7737 169.663 38.3911 169.562 37.9517 169.562C37.4744 169.562 37.0578 169.68 36.7017 169.915C36.3494 170.146 36.0767 170.449 35.8835 170.824C35.6941 171.195 35.5994 171.598 35.5994 172.034V173.028C35.5994 173.612 35.7017 174.108 35.9062 174.517C36.1146 174.926 36.4044 175.239 36.7756 175.455C37.1468 175.667 37.5805 175.773 38.0767 175.773C38.3987 175.773 38.6922 175.727 38.9574 175.636C39.2225 175.542 39.4517 175.402 39.6449 175.216C39.8381 175.03 39.9858 174.801 40.0881 174.528L41.696 174.818C41.5672 175.292 41.3362 175.706 41.0028 176.062C40.6733 176.415 40.2585 176.689 39.7585 176.886C39.2623 177.08 38.696 177.176 38.0597 177.176ZM51.5994 177.176C50.7547 177.176 50.0275 176.985 49.4176 176.602C48.8116 176.216 48.3456 175.684 48.0199 175.006C47.6941 174.328 47.5312 173.551 47.5312 172.676C47.5312 171.79 47.6979 171.008 48.0312 170.33C48.3646 169.648 48.8343 169.116 49.4403 168.733C50.0464 168.35 50.7604 168.159 51.5824 168.159C52.2453 168.159 52.8362 168.282 53.3551 168.528C53.8741 168.771 54.2926 169.112 54.6108 169.551C54.9328 169.991 55.1241 170.504 55.1847 171.091H53.5312C53.4403 170.682 53.232 170.33 52.9062 170.034C52.5843 169.739 52.1525 169.591 51.6108 169.591C51.1373 169.591 50.7225 169.716 50.3665 169.966C50.0142 170.212 49.7396 170.564 49.5426 171.023C49.3456 171.477 49.2472 172.015 49.2472 172.636C49.2472 173.273 49.3438 173.822 49.5369 174.284C49.7301 174.746 50.0028 175.104 50.3551 175.358C50.7112 175.612 51.1297 175.739 51.6108 175.739C51.9328 175.739 52.2244 175.68 52.4858 175.562C52.7509 175.441 52.9725 175.269 53.1506 175.045C53.3324 174.822 53.4593 174.553 53.5312 174.239H55.1847C55.1241 174.803 54.9403 175.307 54.6335 175.75C54.3267 176.193 53.9157 176.542 53.4006 176.795C52.8892 177.049 52.2888 177.176 51.5994 177.176ZM60.6776 177.176C59.8594 177.176 59.1454 176.989 58.5355 176.614C57.9257 176.239 57.4522 175.714 57.1151 175.04C56.7779 174.366 56.6094 173.578 56.6094 172.676C56.6094 171.771 56.7779 170.979 57.1151 170.301C57.4522 169.623 57.9257 169.097 58.5355 168.722C59.1454 168.347 59.8594 168.159 60.6776 168.159C61.4957 168.159 62.2098 168.347 62.8196 168.722C63.4295 169.097 63.9029 169.623 64.2401 170.301C64.5772 170.979 64.7457 171.771 64.7457 172.676C64.7457 173.578 64.5772 174.366 64.2401 175.04C63.9029 175.714 63.4295 176.239 62.8196 176.614C62.2098 176.989 61.4957 177.176 60.6776 177.176ZM60.6832 175.75C61.2135 175.75 61.6529 175.61 62.0014 175.33C62.3499 175.049 62.6075 174.676 62.7741 174.21C62.9446 173.744 63.0298 173.231 63.0298 172.67C63.0298 172.114 62.9446 171.602 62.7741 171.136C62.6075 170.667 62.3499 170.29 62.0014 170.006C61.6529 169.722 61.2135 169.58 60.6832 169.58C60.1491 169.58 59.706 169.722 59.3537 170.006C59.0052 170.29 58.7457 170.667 58.5753 171.136C58.4086 171.602 58.3253 172.114 58.3253 172.67C58.3253 173.231 58.4086 173.744 58.5753 174.21C58.7457 174.676 59.0052 175.049 59.3537 175.33C59.706 175.61 60.1491 175.75 60.6832 175.75ZM67.6392 168.273L69.5653 171.67L71.5085 168.273H73.3665L70.6449 172.636L73.3892 177H71.5312L69.5653 173.739L67.6051 177H65.7415L68.4574 172.636L65.7756 168.273H67.6392ZM75.1108 180.273V168.273H76.7699V169.688H76.9119C77.0104 169.506 77.1525 169.295 77.3381 169.057C77.5237 168.818 77.7813 168.61 78.1108 168.432C78.4403 168.25 78.8759 168.159 79.4176 168.159C80.1222 168.159 80.7509 168.337 81.304 168.693C81.857 169.049 82.2907 169.562 82.6051 170.233C82.9233 170.903 83.0824 171.71 83.0824 172.653C83.0824 173.597 82.9252 174.405 82.6108 175.08C82.2964 175.75 81.8646 176.267 81.3153 176.631C80.7661 176.991 80.1392 177.17 79.4347 177.17C78.9044 177.17 78.4706 177.081 78.1335 176.903C77.8002 176.725 77.5388 176.517 77.3494 176.278C77.16 176.04 77.0142 175.828 76.9119 175.642H76.8097V180.273H75.1108ZM76.7756 172.636C76.7756 173.25 76.8646 173.788 77.0426 174.25C77.2206 174.712 77.4782 175.074 77.8153 175.335C78.1525 175.593 78.5653 175.722 79.054 175.722C79.5616 175.722 79.9858 175.587 80.3267 175.318C80.6676 175.045 80.9252 174.676 81.0994 174.21C81.2775 173.744 81.3665 173.22 81.3665 172.636C81.3665 172.061 81.2794 171.544 81.1051 171.085C80.9347 170.627 80.6771 170.265 80.3324 170C79.9915 169.735 79.5653 169.602 79.054 169.602C78.5616 169.602 78.1449 169.729 77.804 169.983C77.4669 170.237 77.2112 170.591 77.0369 171.045C76.8627 171.5 76.7756 172.03 76.7756 172.636ZM87.5256 177.193C86.9725 177.193 86.4725 177.091 86.0256 176.886C85.5786 176.678 85.2244 176.377 84.9631 175.983C84.7055 175.589 84.5767 175.106 84.5767 174.534C84.5767 174.042 84.6714 173.636 84.8608 173.318C85.0502 173 85.3059 172.748 85.6278 172.562C85.9498 172.377 86.3097 172.237 86.7074 172.142C87.1051 172.047 87.5104 171.975 87.9233 171.926C88.446 171.866 88.8703 171.816 89.196 171.778C89.5218 171.737 89.7585 171.67 89.9062 171.58C90.054 171.489 90.1278 171.341 90.1278 171.136V171.097C90.1278 170.6 89.9877 170.216 89.7074 169.943C89.4309 169.67 89.018 169.534 88.4688 169.534C87.8968 169.534 87.446 169.661 87.1165 169.915C86.7907 170.165 86.5653 170.443 86.4403 170.75L84.8438 170.386C85.0331 169.856 85.3097 169.428 85.6733 169.102C86.0407 168.773 86.4631 168.534 86.9403 168.386C87.4176 168.235 87.9195 168.159 88.446 168.159C88.7945 168.159 89.1638 168.201 89.554 168.284C89.9479 168.364 90.3153 168.511 90.6562 168.727C91.0009 168.943 91.2831 169.252 91.5028 169.653C91.7225 170.051 91.8324 170.568 91.8324 171.205V177H90.1733V175.807H90.1051C89.9953 176.027 89.8305 176.242 89.6108 176.455C89.3911 176.667 89.1089 176.843 88.7642 176.983C88.4195 177.123 88.0066 177.193 87.5256 177.193ZM87.8949 175.83C88.3646 175.83 88.7661 175.737 89.0994 175.551C89.4366 175.366 89.6922 175.123 89.8665 174.824C90.0445 174.521 90.1335 174.197 90.1335 173.852V172.727C90.0729 172.788 89.9555 172.845 89.7812 172.898C89.6108 172.947 89.4157 172.991 89.196 173.028C88.9763 173.062 88.7623 173.095 88.554 173.125C88.3456 173.152 88.1714 173.174 88.0312 173.193C87.7017 173.235 87.4006 173.305 87.1278 173.403C86.8589 173.502 86.643 173.644 86.4801 173.83C86.321 174.011 86.2415 174.254 86.2415 174.557C86.2415 174.977 86.3968 175.295 86.7074 175.511C87.018 175.723 87.4138 175.83 87.8949 175.83ZM100.01 171.903V173.375H95.2827V171.903H100.01ZM95.7599 168.273V177H94.0952V168.273H95.7599ZM101.197 168.273V177H99.5384V168.273H101.197ZM105.135 174.619L108.982 168.273H110.811V177H109.146V170.648L105.317 177H103.47V168.273H105.135V174.619ZM112.408 177L112.402 175.528H112.714C112.957 175.528 113.16 175.477 113.322 175.375C113.489 175.269 113.625 175.091 113.732 174.841C113.838 174.591 113.919 174.246 113.976 173.807C114.033 173.364 114.074 172.807 114.101 172.136L114.254 168.273H120.345V177H118.68V169.739H115.828L115.692 172.705C115.658 173.424 115.584 174.053 115.47 174.591C115.36 175.129 115.199 175.578 114.987 175.938C114.775 176.294 114.502 176.561 114.169 176.739C113.836 176.913 113.43 177 112.953 177H112.408ZM124.276 174.619L128.122 168.273H129.952V177H128.287V170.648L124.457 177H122.611V168.273H124.276V174.619ZM135.912 177.176C135.067 177.176 134.34 176.985 133.73 176.602C133.124 176.216 132.658 175.684 132.332 175.006C132.007 174.328 131.844 173.551 131.844 172.676C131.844 171.79 132.01 171.008 132.344 170.33C132.677 169.648 133.147 169.116 133.753 168.733C134.359 168.35 135.073 168.159 135.895 168.159C136.558 168.159 137.149 168.282 137.668 168.528C138.187 168.771 138.605 169.112 138.923 169.551C139.245 169.991 139.437 170.504 139.497 171.091H137.844C137.753 170.682 137.545 170.33 137.219 170.034C136.897 169.739 136.465 169.591 135.923 169.591C135.45 169.591 135.035 169.716 134.679 169.966C134.327 170.212 134.052 170.564 133.855 171.023C133.658 171.477 133.56 172.015 133.56 172.636C133.56 173.273 133.656 173.822 133.849 174.284C134.043 174.746 134.315 175.104 134.668 175.358C135.024 175.612 135.442 175.739 135.923 175.739C136.245 175.739 136.537 175.68 136.798 175.562C137.063 175.441 137.285 175.269 137.463 175.045C137.645 174.822 137.772 174.553 137.844 174.239H139.497C139.437 174.803 139.253 175.307 138.946 175.75C138.639 176.193 138.228 176.542 137.713 176.795C137.202 177.049 136.601 177.176 135.912 177.176ZM142.592 171.273H145.126C146.195 171.273 147.017 171.538 147.592 172.068C148.168 172.598 148.456 173.282 148.456 174.119C148.456 174.665 148.327 175.155 148.07 175.591C147.812 176.027 147.435 176.371 146.939 176.625C146.443 176.875 145.839 177 145.126 177H141.314V168.273H142.979V175.534H145.126C145.615 175.534 146.017 175.407 146.331 175.153C146.645 174.896 146.803 174.568 146.803 174.17C146.803 173.75 146.645 173.407 146.331 173.142C146.017 172.873 145.615 172.739 145.126 172.739H142.592V171.273Z" fill="#101010"/>
          </svg>