<svg width="173" height="149" viewBox="0 0 173 149" fill="none" xmlns="http://www.w3.org/2000/svg">
            <path d="M115.48 29.3398L123.52 34.9798L88.6597 85.2598H80.6197L61.1797 58.0198L69.2197 50.5198L84.6397 64.9198L115.48 29.3398Z" fill="#49CF7E"/>
            <path d="M10.5305 147.812V143.511H11.2976C11.5589 143.292 11.8033 142.979 12.0305 142.574C12.2578 142.169 12.451 141.621 12.6101 140.932C12.7692 140.242 12.879 139.358 12.9396 138.278L13.2124 133.364H20.3885V143.511H21.7067V147.795H20.0249V145H12.2124V147.812H10.5305ZM13.3658 143.511H18.7067V134.875H14.8033L14.6214 138.278C14.5722 139.1 14.4908 139.839 14.3771 140.494C14.2673 141.15 14.1252 141.729 13.951 142.233C13.7805 142.733 13.5855 143.159 13.3658 143.511ZM26.0334 145.193C25.4804 145.193 24.9804 145.091 24.5334 144.886C24.0864 144.678 23.7322 144.377 23.4709 143.983C23.2133 143.589 23.0845 143.106 23.0845 142.534C23.0845 142.042 23.1792 141.636 23.3686 141.318C23.558 141 23.8137 140.748 24.1357 140.562C24.4576 140.377 24.8175 140.237 25.2152 140.142C25.6129 140.047 26.0182 139.975 26.4311 139.926C26.9538 139.866 27.3781 139.816 27.7038 139.778C28.0296 139.737 28.2663 139.67 28.4141 139.58C28.5618 139.489 28.6357 139.341 28.6357 139.136V139.097C28.6357 138.6 28.4955 138.216 28.2152 137.943C27.9387 137.67 27.5258 137.534 26.9766 137.534C26.4046 137.534 25.9538 137.661 25.6243 137.915C25.2985 138.165 25.0732 138.443 24.9482 138.75L23.3516 138.386C23.541 137.856 23.8175 137.428 24.1811 137.102C24.5485 136.773 24.9709 136.534 25.4482 136.386C25.9254 136.235 26.4273 136.159 26.9538 136.159C27.3023 136.159 27.6716 136.201 28.0618 136.284C28.4557 136.364 28.8232 136.511 29.1641 136.727C29.5088 136.943 29.791 137.252 30.0107 137.653C30.2304 138.051 30.3402 138.568 30.3402 139.205V145H28.6811V143.807H28.6129C28.5031 144.027 28.3383 144.242 28.1186 144.455C27.8989 144.667 27.6167 144.843 27.272 144.983C26.9273 145.123 26.5144 145.193 26.0334 145.193ZM26.4027 143.83C26.8724 143.83 27.2739 143.737 27.6072 143.551C27.9444 143.366 28.2 143.123 28.3743 142.824C28.5523 142.521 28.6413 142.197 28.6413 141.852V140.727C28.5807 140.788 28.4633 140.845 28.2891 140.898C28.1186 140.947 27.9235 140.991 27.7038 141.028C27.4841 141.062 27.2701 141.095 27.0618 141.125C26.8535 141.152 26.6792 141.174 26.5391 141.193C26.2095 141.235 25.9084 141.305 25.6357 141.403C25.3667 141.502 25.1508 141.644 24.9879 141.83C24.8288 142.011 24.7493 142.254 24.7493 142.557C24.7493 142.977 24.9046 143.295 25.2152 143.511C25.5258 143.723 25.9216 143.83 26.4027 143.83ZM38.5178 139.903V141.375H33.7905V139.903H38.5178ZM34.2678 136.273V145H32.603V136.273H34.2678ZM39.7053 136.273V145H38.0462V136.273H39.7053ZM47.8928 139.903V141.375H43.1655V139.903H47.8928ZM43.6428 136.273V145H41.978V136.273H43.6428ZM49.0803 136.273V145H47.4212V136.273H49.0803ZM52.6314 139.273H55.1655C56.2337 139.273 57.0556 139.538 57.6314 140.068C58.2071 140.598 58.495 141.282 58.495 142.119C58.495 142.665 58.3662 143.155 58.1087 143.591C57.8511 144.027 57.4742 144.371 56.978 144.625C56.4818 144.875 55.8776 145 55.1655 145H51.353V136.273H53.0178V143.534H55.1655C55.6541 143.534 56.0556 143.407 56.37 143.153C56.6844 142.896 56.8416 142.568 56.8416 142.17C56.8416 141.75 56.6844 141.407 56.37 141.142C56.0556 140.873 55.6541 140.739 55.1655 140.739H52.6314V139.273ZM59.7337 145V136.273H61.4325V145H59.7337ZM67.4737 145.176C66.6139 145.176 65.8733 144.992 65.2521 144.625C64.6347 144.254 64.1574 143.733 63.8203 143.062C63.487 142.388 63.3203 141.598 63.3203 140.693C63.3203 139.799 63.487 139.011 63.8203 138.33C64.1574 137.648 64.6271 137.116 65.2294 136.733C65.8355 136.35 66.5438 136.159 67.3544 136.159C67.8468 136.159 68.3241 136.241 68.7862 136.403C69.2483 136.566 69.6631 136.822 70.0305 137.17C70.398 137.519 70.6877 137.972 70.8999 138.528C71.112 139.081 71.218 139.754 71.218 140.545V141.148H64.2805V139.875H69.5533C69.5533 139.428 69.4624 139.032 69.2805 138.688C69.0987 138.339 68.843 138.064 68.5135 137.864C68.1877 137.663 67.8052 137.562 67.3658 137.562C66.8885 137.562 66.4718 137.68 66.1158 137.915C65.7635 138.146 65.4908 138.449 65.2976 138.824C65.1082 139.195 65.0135 139.598 65.0135 140.034V141.028C65.0135 141.612 65.1158 142.108 65.3203 142.517C65.5286 142.926 65.8184 143.239 66.1896 143.455C66.5608 143.667 66.9946 143.773 67.4908 143.773C67.8127 143.773 68.1063 143.727 68.3714 143.636C68.6366 143.542 68.8658 143.402 69.0589 143.216C69.2521 143.03 69.3999 142.801 69.5021 142.528L71.1101 142.818C70.9813 143.292 70.7502 143.706 70.4169 144.062C70.0874 144.415 69.6726 144.689 69.1726 144.886C68.6764 145.08 68.1101 145.176 67.4737 145.176ZM81.0135 145.176C80.1688 145.176 79.4415 144.985 78.8317 144.602C78.2256 144.216 77.7597 143.684 77.4339 143.006C77.1082 142.328 76.9453 141.551 76.9453 140.676C76.9453 139.79 77.112 139.008 77.4453 138.33C77.7786 137.648 78.2483 137.116 78.8544 136.733C79.4605 136.35 80.1745 136.159 80.9964 136.159C81.6593 136.159 82.2502 136.282 82.7692 136.528C83.2881 136.771 83.7067 137.112 84.0249 137.551C84.3468 137.991 84.5381 138.504 84.5987 139.091H82.9453C82.8544 138.682 82.6461 138.33 82.3203 138.034C81.9983 137.739 81.5665 137.591 81.0249 137.591C80.5514 137.591 80.1366 137.716 79.7805 137.966C79.4283 138.212 79.1536 138.564 78.9567 139.023C78.7597 139.477 78.6612 140.015 78.6612 140.636C78.6612 141.273 78.7578 141.822 78.951 142.284C79.1442 142.746 79.4169 143.104 79.7692 143.358C80.1252 143.612 80.5438 143.739 81.0249 143.739C81.3468 143.739 81.6385 143.68 81.8999 143.562C82.165 143.441 82.3866 143.269 82.5646 143.045C82.7464 142.822 82.8733 142.553 82.9453 142.239H84.5987C84.5381 142.803 84.3544 143.307 84.0476 143.75C83.7408 144.193 83.3298 144.542 82.8146 144.795C82.3033 145.049 81.7029 145.176 81.0135 145.176ZM90.0916 145.176C89.2734 145.176 88.5594 144.989 87.9496 144.614C87.3397 144.239 86.8662 143.714 86.5291 143.04C86.192 142.366 86.0234 141.578 86.0234 140.676C86.0234 139.771 86.192 138.979 86.5291 138.301C86.8662 137.623 87.3397 137.097 87.9496 136.722C88.5594 136.347 89.2734 136.159 90.0916 136.159C90.9098 136.159 91.6238 136.347 92.2337 136.722C92.8435 137.097 93.317 137.623 93.6541 138.301C93.9912 138.979 94.1598 139.771 94.1598 140.676C94.1598 141.578 93.9912 142.366 93.6541 143.04C93.317 143.714 92.8435 144.239 92.2337 144.614C91.6238 144.989 90.9098 145.176 90.0916 145.176ZM90.0973 143.75C90.6276 143.75 91.067 143.61 91.4155 143.33C91.764 143.049 92.0215 142.676 92.1882 142.21C92.3587 141.744 92.4439 141.231 92.4439 140.67C92.4439 140.114 92.3587 139.602 92.1882 139.136C92.0215 138.667 91.764 138.29 91.4155 138.006C91.067 137.722 90.6276 137.58 90.0973 137.58C89.5632 137.58 89.12 137.722 88.7678 138.006C88.4193 138.29 88.1598 138.667 87.9893 139.136C87.8227 139.602 87.7393 140.114 87.7393 140.67C87.7393 141.231 87.8227 141.744 87.9893 142.21C88.1598 142.676 88.4193 143.049 88.7678 143.33C89.12 143.61 89.5632 143.75 90.0973 143.75ZM97.0533 136.273L98.9794 139.67L100.923 136.273H102.781L100.059 140.636L102.803 145H100.945L98.9794 141.739L97.0192 145H95.1555L97.8714 140.636L95.1896 136.273H97.0533ZM104.525 148.273V136.273H106.184V137.688H106.326C106.424 137.506 106.567 137.295 106.752 137.057C106.938 136.818 107.195 136.61 107.525 136.432C107.854 136.25 108.29 136.159 108.832 136.159C109.536 136.159 110.165 136.337 110.718 136.693C111.271 137.049 111.705 137.562 112.019 138.233C112.337 138.903 112.496 139.71 112.496 140.653C112.496 141.597 112.339 142.405 112.025 143.08C111.71 143.75 111.279 144.267 110.729 144.631C110.18 144.991 109.553 145.17 108.849 145.17C108.318 145.17 107.885 145.081 107.548 144.903C107.214 144.725 106.953 144.517 106.763 144.278C106.574 144.04 106.428 143.828 106.326 143.642H106.224V148.273H104.525ZM106.19 140.636C106.19 141.25 106.279 141.788 106.457 142.25C106.635 142.712 106.892 143.074 107.229 143.335C107.567 143.593 107.979 143.722 108.468 143.722C108.976 143.722 109.4 143.587 109.741 143.318C110.082 143.045 110.339 142.676 110.513 142.21C110.692 141.744 110.781 141.22 110.781 140.636C110.781 140.061 110.693 139.544 110.519 139.085C110.349 138.627 110.091 138.265 109.746 138C109.406 137.735 108.979 137.602 108.468 137.602C107.976 137.602 107.559 137.729 107.218 137.983C106.881 138.237 106.625 138.591 106.451 139.045C106.277 139.5 106.19 140.03 106.19 140.636ZM116.94 145.193C116.387 145.193 115.887 145.091 115.44 144.886C114.993 144.678 114.638 144.377 114.377 143.983C114.12 143.589 113.991 143.106 113.991 142.534C113.991 142.042 114.085 141.636 114.275 141.318C114.464 141 114.72 140.748 115.042 140.562C115.364 140.377 115.724 140.237 116.121 140.142C116.519 140.047 116.924 139.975 117.337 139.926C117.86 139.866 118.284 139.816 118.61 139.778C118.936 139.737 119.173 139.67 119.32 139.58C119.468 139.489 119.542 139.341 119.542 139.136V139.097C119.542 138.6 119.402 138.216 119.121 137.943C118.845 137.67 118.432 137.534 117.883 137.534C117.311 137.534 116.86 137.661 116.531 137.915C116.205 138.165 115.979 138.443 115.854 138.75L114.258 138.386C114.447 137.856 114.724 137.428 115.087 137.102C115.455 136.773 115.877 136.534 116.354 136.386C116.832 136.235 117.334 136.159 117.86 136.159C118.209 136.159 118.578 136.201 118.968 136.284C119.362 136.364 119.729 136.511 120.07 136.727C120.415 136.943 120.697 137.252 120.917 137.653C121.137 138.051 121.246 138.568 121.246 139.205V145H119.587V143.807H119.519C119.409 144.027 119.245 144.242 119.025 144.455C118.805 144.667 118.523 144.843 118.178 144.983C117.834 145.123 117.421 145.193 116.94 145.193ZM117.309 143.83C117.779 143.83 118.18 143.737 118.513 143.551C118.851 143.366 119.106 143.123 119.281 142.824C119.459 142.521 119.548 142.197 119.548 141.852V140.727C119.487 140.788 119.37 140.845 119.195 140.898C119.025 140.947 118.83 140.991 118.61 141.028C118.39 141.062 118.176 141.095 117.968 141.125C117.76 141.152 117.585 141.174 117.445 141.193C117.116 141.235 116.815 141.305 116.542 141.403C116.273 141.502 116.057 141.644 115.894 141.83C115.735 142.011 115.656 142.254 115.656 142.557C115.656 142.977 115.811 143.295 116.121 143.511C116.432 143.723 116.828 143.83 117.309 143.83ZM129.424 139.903V141.375H124.697V139.903H129.424ZM125.174 136.273V145H123.509V136.273H125.174ZM130.612 136.273V145H128.952V136.273H130.612ZM136.646 145.176C135.786 145.176 135.045 144.992 134.424 144.625C133.807 144.254 133.329 143.733 132.992 143.062C132.659 142.388 132.492 141.598 132.492 140.693C132.492 139.799 132.659 139.011 132.992 138.33C133.329 137.648 133.799 137.116 134.401 136.733C135.007 136.35 135.716 136.159 136.526 136.159C137.019 136.159 137.496 136.241 137.958 136.403C138.42 136.566 138.835 136.822 139.202 137.17C139.57 137.519 139.86 137.972 140.072 138.528C140.284 139.081 140.39 139.754 140.39 140.545V141.148H133.452V139.875H138.725C138.725 139.428 138.634 139.032 138.452 138.688C138.271 138.339 138.015 138.064 137.685 137.864C137.36 137.663 136.977 137.562 136.538 137.562C136.06 137.562 135.644 137.68 135.288 137.915C134.935 138.146 134.663 138.449 134.469 138.824C134.28 139.195 134.185 139.598 134.185 140.034V141.028C134.185 141.612 134.288 142.108 134.492 142.517C134.701 142.926 134.99 143.239 135.362 143.455C135.733 143.667 136.166 143.773 136.663 143.773C136.985 143.773 137.278 143.727 137.543 143.636C137.808 143.542 138.038 143.402 138.231 143.216C138.424 143.03 138.572 142.801 138.674 142.528L140.282 142.818C140.153 143.292 139.922 143.706 139.589 144.062C139.259 144.415 138.844 144.689 138.344 144.886C137.848 145.08 137.282 145.176 136.646 145.176ZM148.19 139.903V141.375H143.462V139.903H148.19ZM143.94 136.273V145H142.275V136.273H143.94ZM149.377 136.273V145H147.718V136.273H149.377ZM152.928 139.273H155.462C156.531 139.273 157.353 139.538 157.928 140.068C158.504 140.598 158.792 141.282 158.792 142.119C158.792 142.665 158.663 143.155 158.406 143.591C158.148 144.027 157.771 144.371 157.275 144.625C156.779 144.875 156.174 145 155.462 145H151.65V136.273H153.315V143.534H155.462C155.951 143.534 156.353 143.407 156.667 143.153C156.981 142.896 157.138 142.568 157.138 142.17C157.138 141.75 156.981 141.407 156.667 141.142C156.353 140.873 155.951 140.739 155.462 140.739H152.928V139.273ZM160.031 145V136.273H161.729V145H160.031Z" fill="#101010"/>
          </svg>