<svg width="18" height="18" viewBox="0 0 18 18" fill="none" xmlns="http://www.w3.org/2000/svg">
<path d="M13.635 6.0295L13.9826 5.68192C14.5585 5.10603 15.4922 5.10603 16.0681 5.68192C16.644 6.25781 16.644 7.19151 16.0681 7.7674L15.7205 8.11498M13.635 6.0295C13.635 6.0295 13.6785 6.7681 14.3302 7.41982C14.9819 8.07153 15.7205 8.11498 15.7205 8.11498M13.635 6.0295L10.4396 9.22496C10.2231 9.4414 10.1149 9.54962 10.0218 9.66894C9.91205 9.80969 9.81793 9.96199 9.74113 10.1231C9.67603 10.2597 9.62763 10.4049 9.53084 10.6953L9.22094 11.625L9.12068 11.9258M15.7205 8.11498L12.525 11.3104C12.3086 11.5269 12.2004 11.6351 12.0811 11.7282C11.9403 11.8379 11.788 11.9321 11.6269 12.0089C11.4903 12.074 11.3451 12.1224 11.0547 12.2192L10.125 12.5291L9.82422 12.6293M9.82422 12.6293L9.52344 12.7296C9.38054 12.7772 9.223 12.74 9.11649 12.6335C9.00998 12.527 8.97279 12.3695 9.02042 12.2266L9.12068 11.9258M9.82422 12.6293L9.12068 11.9258" stroke="#101010"/>
<path d="M6 9.75H7.875" stroke="#101010" stroke-linecap="round"/>
<path d="M6 6.75H10.875" stroke="#101010" stroke-linecap="round"/>
<path d="M6 12.75H7.125" stroke="#101010" stroke-linecap="round"/>
<path d="M14.8713 2.37868C13.9926 1.5 12.5784 1.5 9.75 1.5H8.25C5.42157 1.5 4.00736 1.5 3.12868 2.37868C2.25 3.25736 2.25 4.67157 2.25 7.5V10.5C2.25 13.3284 2.25 14.7426 3.12868 15.6213C4.00736 16.5 5.42157 16.5 8.25 16.5H9.75C12.5784 16.5 13.9926 16.5 14.8713 15.6213C15.5786 14.914 15.7166 13.8597 15.7435 12" stroke="#101010" stroke-linecap="round"/>
</svg>
