<svg width="173" height="181" viewBox="0 0 173 181" fill="none" xmlns="http://www.w3.org/2000/svg">
<path d="M86.5 7.5C57.25 7.5 34 30.75 34 60C34 89.25 57.25 112.5 86.5 112.5C115.75 112.5 139 89.25 139 60C139 30.75 115.75 7.5 86.5 7.5ZM86.5 105C61.75 105 41.5 84.75 41.5 60C41.5 35.25 61.75 15 86.5 15C111.25 15 131.5 35.25 131.5 60C131.5 84.75 111.25 105 86.5 105Z" fill="#CF5D49"/>
<path d="M106.75 86.25L86.5 66L66.25 86.25L60.25 80.25L80.5 60L60.25 39.75L66.25 33.75L86.5 54L106.75 33.75L112.75 39.75L92.5 60L112.75 80.25L106.75 86.25Z" fill="#CF5D49"/>
<path d="M19.4297 147.364V159H17.6797V148.864H12.2024V159H10.4524V147.364H19.4297ZM21.978 162.273V150.273H23.6371V151.688H23.7791C23.8776 151.506 24.0196 151.295 24.2053 151.057C24.3909 150.818 24.6484 150.61 24.978 150.432C25.3075 150.25 25.7431 150.159 26.2848 150.159C26.9893 150.159 27.6181 150.337 28.1712 150.693C28.7242 151.049 29.1579 151.562 29.4723 152.233C29.7905 152.903 29.9496 153.71 29.9496 154.653C29.9496 155.597 29.7924 156.405 29.478 157.08C29.1636 157.75 28.7318 158.267 28.1825 158.631C27.6333 158.991 27.0064 159.17 26.3018 159.17C25.7715 159.17 25.3378 159.081 25.0007 158.903C24.6674 158.725 24.406 158.517 24.2166 158.278C24.0272 158.04 23.8814 157.828 23.7791 157.642H23.6768V162.273H21.978ZM23.6428 154.636C23.6428 155.25 23.7318 155.788 23.9098 156.25C24.0878 156.712 24.3454 157.074 24.6825 157.335C25.0196 157.593 25.4325 157.722 25.9212 157.722C26.4287 157.722 26.853 157.587 27.1939 157.318C27.5348 157.045 27.7924 156.676 27.9666 156.21C28.1446 155.744 28.2337 155.22 28.2337 154.636C28.2337 154.061 28.1465 153.544 27.9723 153.085C27.8018 152.627 27.5443 152.265 27.1996 152C26.8587 151.735 26.4325 151.602 25.9212 151.602C25.4287 151.602 25.0121 151.729 24.6712 151.983C24.334 152.237 24.0784 152.591 23.9041 153.045C23.7299 153.5 23.6428 154.03 23.6428 154.636ZM35.5291 159.176C34.7109 159.176 33.9969 158.989 33.3871 158.614C32.7772 158.239 32.3037 157.714 31.9666 157.04C31.6295 156.366 31.4609 155.578 31.4609 154.676C31.4609 153.771 31.6295 152.979 31.9666 152.301C32.3037 151.623 32.7772 151.097 33.3871 150.722C33.9969 150.347 34.7109 150.159 35.5291 150.159C36.3473 150.159 37.0613 150.347 37.6712 150.722C38.281 151.097 38.7545 151.623 39.0916 152.301C39.4287 152.979 39.5973 153.771 39.5973 154.676C39.5973 155.578 39.4287 156.366 39.0916 157.04C38.7545 157.714 38.281 158.239 37.6712 158.614C37.0613 158.989 36.3473 159.176 35.5291 159.176ZM35.5348 157.75C36.0651 157.75 36.5045 157.61 36.853 157.33C37.2015 157.049 37.459 156.676 37.6257 156.21C37.7962 155.744 37.8814 155.231 37.8814 154.67C37.8814 154.114 37.7962 153.602 37.6257 153.136C37.459 152.667 37.2015 152.29 36.853 152.006C36.5045 151.722 36.0651 151.58 35.5348 151.58C35.0007 151.58 34.5575 151.722 34.2053 152.006C33.8568 152.29 33.5973 152.667 33.4268 153.136C33.2602 153.602 33.1768 154.114 33.1768 154.67C33.1768 155.231 33.2602 155.744 33.4268 156.21C33.5973 156.676 33.8568 157.049 34.2053 157.33C34.5575 157.61 35.0007 157.75 35.5348 157.75ZM43.1584 156.619L47.005 150.273H48.8345V159H47.1697V152.648L43.3402 159H41.4936V150.273H43.1584V156.619ZM50.6016 156.693H52.3402C52.3629 157.049 52.5239 157.324 52.8232 157.517C53.1262 157.71 53.5182 157.807 53.9993 157.807C54.4879 157.807 54.9046 157.703 55.2493 157.494C55.594 157.282 55.7663 156.955 55.7663 156.511C55.7663 156.246 55.7 156.015 55.5675 155.818C55.4387 155.617 55.255 155.462 55.0163 155.352C54.7815 155.242 54.5031 155.188 54.1811 155.188H52.7607V153.852H54.1811C54.6622 153.852 55.022 153.742 55.2607 153.523C55.4993 153.303 55.6186 153.028 55.6186 152.699C55.6186 152.343 55.4898 152.057 55.2322 151.841C54.9785 151.621 54.6243 151.511 54.1697 151.511C53.7076 151.511 53.3232 151.616 53.0163 151.824C52.7095 152.028 52.5485 152.294 52.5334 152.619H50.8175C50.8288 152.131 50.9766 151.703 51.2607 151.335C51.5485 150.964 51.9349 150.676 52.4197 150.472C52.9084 150.263 53.4633 150.159 54.0845 150.159C54.7322 150.159 55.2929 150.263 55.7663 150.472C56.2398 150.68 56.6054 150.968 56.8629 151.335C57.1243 151.703 57.255 152.125 57.255 152.602C57.255 153.083 57.111 153.477 56.8232 153.784C56.5391 154.087 56.1679 154.305 55.7095 154.438V154.528C56.0466 154.551 56.3459 154.653 56.6072 154.835C56.8686 155.017 57.0732 155.258 57.2209 155.557C57.3686 155.856 57.4425 156.195 57.4425 156.574C57.4425 157.108 57.2947 157.57 56.9993 157.96C56.7076 158.35 56.3023 158.652 55.7834 158.864C55.2682 159.072 54.6792 159.176 54.0163 159.176C53.3724 159.176 52.7947 159.076 52.2834 158.875C51.7758 158.67 51.3724 158.383 51.0732 158.011C50.7777 157.64 50.6205 157.201 50.6016 156.693ZM62.8729 159.176C62.0547 159.176 61.3407 158.989 60.7308 158.614C60.121 158.239 59.6475 157.714 59.3104 157.04C58.9732 156.366 58.8047 155.578 58.8047 154.676C58.8047 153.771 58.9732 152.979 59.3104 152.301C59.6475 151.623 60.121 151.097 60.7308 150.722C61.3407 150.347 62.0547 150.159 62.8729 150.159C63.6911 150.159 64.4051 150.347 65.0149 150.722C65.6248 151.097 66.0982 151.623 66.4354 152.301C66.7725 152.979 66.9411 153.771 66.9411 154.676C66.9411 155.578 66.7725 156.366 66.4354 157.04C66.0982 157.714 65.6248 158.239 65.0149 158.614C64.4051 158.989 63.6911 159.176 62.8729 159.176ZM62.8786 157.75C63.4089 157.75 63.8482 157.61 64.1967 157.33C64.5452 157.049 64.8028 156.676 64.9695 156.21C65.1399 155.744 65.2251 155.231 65.2251 154.67C65.2251 154.114 65.1399 153.602 64.9695 153.136C64.8028 152.667 64.5452 152.29 64.1967 152.006C63.8482 151.722 63.4089 151.58 62.8786 151.58C62.3445 151.58 61.9013 151.722 61.549 152.006C61.2005 152.29 60.9411 152.667 60.7706 153.136C60.6039 153.602 60.5206 154.114 60.5206 154.67C60.5206 155.231 60.6039 155.744 60.7706 156.21C60.9411 156.676 61.2005 157.049 61.549 157.33C61.9013 157.61 62.3445 157.75 62.8786 157.75ZM68.8374 150.273H70.5021V157.528H73.5192V150.273H75.1839V157.528H78.201V150.273H79.8658V159H68.8374V150.273ZM81.4467 159L81.4411 157.528H81.7536C81.996 157.528 82.1986 157.477 82.3615 157.375C82.5282 157.269 82.6645 157.091 82.7706 156.841C82.8767 156.591 82.9581 156.246 83.0149 155.807C83.0717 155.364 83.1134 154.807 83.1399 154.136L83.2933 150.273H89.3842V159H87.7195V151.739H84.8672L84.7308 154.705C84.6967 155.424 84.6229 156.053 84.5092 156.591C84.3994 157.129 84.2384 157.578 84.0263 157.938C83.8142 158.294 83.5414 158.561 83.2081 158.739C82.8748 158.913 82.4695 159 81.9922 159H81.4467ZM94.1896 159.193C93.6366 159.193 93.1366 159.091 92.6896 158.886C92.2427 158.678 91.8885 158.377 91.6271 157.983C91.3696 157.589 91.2408 157.106 91.2408 156.534C91.2408 156.042 91.3355 155.636 91.5249 155.318C91.7143 155 91.9699 154.748 92.2919 154.562C92.6139 154.377 92.9737 154.237 93.3714 154.142C93.7692 154.047 94.1745 153.975 94.5874 153.926C95.1101 153.866 95.5343 153.816 95.8601 153.778C96.1858 153.737 96.4226 153.67 96.5703 153.58C96.718 153.489 96.7919 153.341 96.7919 153.136V153.097C96.7919 152.6 96.6518 152.216 96.3714 151.943C96.0949 151.67 95.6821 151.534 95.1328 151.534C94.5608 151.534 94.1101 151.661 93.7805 151.915C93.4548 152.165 93.2294 152.443 93.1044 152.75L91.5078 152.386C91.6972 151.856 91.9737 151.428 92.3374 151.102C92.7048 150.773 93.1271 150.534 93.6044 150.386C94.0817 150.235 94.5836 150.159 95.1101 150.159C95.4586 150.159 95.8279 150.201 96.218 150.284C96.612 150.364 96.9794 150.511 97.3203 150.727C97.665 150.943 97.9472 151.252 98.1669 151.653C98.3866 152.051 98.4964 152.568 98.4964 153.205V159H96.8374V157.807H96.7692C96.6593 158.027 96.4946 158.242 96.2749 158.455C96.0552 158.667 95.773 158.843 95.4283 158.983C95.0836 159.123 94.6707 159.193 94.1896 159.193ZM94.5589 157.83C95.0286 157.83 95.4302 157.737 95.7635 157.551C96.1006 157.366 96.3563 157.123 96.5305 156.824C96.7086 156.521 96.7976 156.197 96.7976 155.852V154.727C96.737 154.788 96.6196 154.845 96.4453 154.898C96.2749 154.947 96.0798 154.991 95.8601 155.028C95.6404 155.062 95.4264 155.095 95.218 155.125C95.0097 155.152 94.8355 155.174 94.6953 155.193C94.3658 155.235 94.0646 155.305 93.7919 155.403C93.523 155.502 93.3071 155.644 93.1442 155.83C92.9851 156.011 92.9055 156.254 92.9055 156.557C92.9055 156.977 93.0608 157.295 93.3714 157.511C93.6821 157.723 94.0779 157.83 94.5589 157.83ZM108.67 159.176C107.852 159.176 107.138 158.989 106.528 158.614C105.918 158.239 105.444 157.714 105.107 157.04C104.77 156.366 104.602 155.578 104.602 154.676C104.602 153.771 104.77 152.979 105.107 152.301C105.444 151.623 105.918 151.097 106.528 150.722C107.138 150.347 107.852 150.159 108.67 150.159C109.488 150.159 110.202 150.347 110.812 150.722C111.422 151.097 111.895 151.623 112.232 152.301C112.569 152.979 112.738 153.771 112.738 154.676C112.738 155.578 112.569 156.366 112.232 157.04C111.895 157.714 111.422 158.239 110.812 158.614C110.202 158.989 109.488 159.176 108.67 159.176ZM108.675 157.75C109.206 157.75 109.645 157.61 109.994 157.33C110.342 157.049 110.6 156.676 110.766 156.21C110.937 155.744 111.022 155.231 111.022 154.67C111.022 154.114 110.937 153.602 110.766 153.136C110.6 152.667 110.342 152.29 109.994 152.006C109.645 151.722 109.206 151.58 108.675 151.58C108.141 151.58 107.698 151.722 107.346 152.006C106.997 152.29 106.738 152.667 106.567 153.136C106.401 153.602 106.317 154.114 106.317 154.67C106.317 155.231 106.401 155.744 106.567 156.21C106.738 156.676 106.997 157.049 107.346 157.33C107.698 157.61 108.141 157.75 108.675 157.75ZM114.634 150.273H116.299V157.528H119.316V150.273H120.981V157.528H123.998V150.273H125.663V159H114.634V150.273ZM129.596 156.619L133.442 150.273H135.272V159H133.607V152.648L129.778 159H127.931V150.273H129.596V156.619ZM144.289 147.023L144.994 148.097C144.732 148.335 144.435 148.506 144.102 148.608C143.772 148.706 143.391 148.769 142.96 148.795C142.528 148.818 142.033 148.839 141.477 148.858C140.848 148.877 140.331 149.013 139.925 149.267C139.52 149.517 139.208 149.888 138.988 150.381C138.772 150.869 138.632 151.483 138.567 152.222H138.675C138.96 151.68 139.353 151.275 139.857 151.006C140.365 150.737 140.935 150.602 141.567 150.602C142.272 150.602 142.899 150.763 143.448 151.085C143.997 151.407 144.429 151.879 144.744 152.5C145.062 153.117 145.221 153.873 145.221 154.767C145.221 155.672 145.054 156.455 144.721 157.114C144.391 157.773 143.925 158.282 143.323 158.642C142.725 158.998 142.018 159.176 141.204 159.176C140.389 159.176 139.679 158.992 139.073 158.625C138.471 158.254 138.003 157.705 137.67 156.977C137.34 156.25 137.175 155.352 137.175 154.284V153.42C137.175 151.424 137.531 149.922 138.244 148.915C138.956 147.907 140.02 147.39 141.437 147.364C141.895 147.352 142.304 147.35 142.664 147.358C143.024 147.362 143.338 147.345 143.607 147.307C143.88 147.265 144.107 147.17 144.289 147.023ZM141.21 157.75C141.683 157.75 142.09 157.631 142.431 157.392C142.776 157.15 143.041 156.807 143.227 156.364C143.412 155.92 143.505 155.398 143.505 154.795C143.505 154.205 143.412 153.703 143.227 153.29C143.041 152.877 142.776 152.562 142.431 152.347C142.086 152.127 141.674 152.017 141.192 152.017C140.836 152.017 140.518 152.08 140.238 152.205C139.958 152.326 139.717 152.506 139.516 152.744C139.319 152.983 139.166 153.275 139.056 153.619C138.95 153.96 138.893 154.352 138.886 154.795C138.886 155.697 139.092 156.415 139.505 156.949C139.922 157.483 140.49 157.75 141.21 157.75ZM147.119 159V150.273H148.817V153.932H149.636L152.516 150.273H154.619L151.238 154.517L154.658 159H152.55L149.92 155.511H148.817V159H147.119ZM158.518 159.193C157.965 159.193 157.465 159.091 157.018 158.886C156.571 158.678 156.217 158.377 155.955 157.983C155.698 157.589 155.569 157.106 155.569 156.534C155.569 156.042 155.664 155.636 155.853 155.318C156.042 155 156.298 154.748 156.62 154.562C156.942 154.377 157.302 154.237 157.7 154.142C158.097 154.047 158.503 153.975 158.915 153.926C159.438 153.866 159.862 153.816 160.188 153.778C160.514 153.737 160.751 153.67 160.898 153.58C161.046 153.489 161.12 153.341 161.12 153.136V153.097C161.12 152.6 160.98 152.216 160.7 151.943C160.423 151.67 160.01 151.534 159.461 151.534C158.889 151.534 158.438 151.661 158.109 151.915C157.783 152.165 157.558 152.443 157.433 152.75L155.836 152.386C156.025 151.856 156.302 151.428 156.665 151.102C157.033 150.773 157.455 150.534 157.933 150.386C158.41 150.235 158.912 150.159 159.438 150.159C159.787 150.159 160.156 150.201 160.546 150.284C160.94 150.364 161.308 150.511 161.648 150.727C161.993 150.943 162.275 151.252 162.495 151.653C162.715 152.051 162.825 152.568 162.825 153.205V159H161.165V157.807H161.097C160.987 158.027 160.823 158.242 160.603 158.455C160.383 158.667 160.101 158.843 159.756 158.983C159.412 159.123 158.999 159.193 158.518 159.193ZM158.887 157.83C159.357 157.83 159.758 157.737 160.092 157.551C160.429 157.366 160.684 157.123 160.859 156.824C161.037 156.521 161.126 156.197 161.126 155.852V154.727C161.065 154.788 160.948 154.845 160.773 154.898C160.603 154.947 160.408 154.991 160.188 155.028C159.969 155.062 159.754 155.095 159.546 155.125C159.338 155.152 159.164 155.174 159.023 155.193C158.694 155.235 158.393 155.305 158.12 155.403C157.851 155.502 157.635 155.644 157.472 155.83C157.313 156.011 157.234 156.254 157.234 156.557C157.234 156.977 157.389 157.295 157.7 157.511C158.01 157.723 158.406 157.83 158.887 157.83ZM25.7031 174.693H27.4418C27.4645 175.049 27.6255 175.324 27.9247 175.517C28.2277 175.71 28.6198 175.807 29.1009 175.807C29.5895 175.807 30.0062 175.703 30.3509 175.494C30.6955 175.282 30.8679 174.955 30.8679 174.511C30.8679 174.246 30.8016 174.015 30.669 173.818C30.5402 173.617 30.3565 173.462 30.1179 173.352C29.883 173.242 29.6046 173.188 29.2827 173.188H27.8622V171.852H29.2827C29.7637 171.852 30.1236 171.742 30.3622 171.523C30.6009 171.303 30.7202 171.028 30.7202 170.699C30.7202 170.343 30.5914 170.057 30.3338 169.841C30.08 169.621 29.7259 169.511 29.2713 169.511C28.8092 169.511 28.4247 169.616 28.1179 169.824C27.8111 170.028 27.6501 170.294 27.6349 170.619H25.919C25.9304 170.131 26.0781 169.703 26.3622 169.335C26.6501 168.964 27.0365 168.676 27.5213 168.472C28.0099 168.263 28.5649 168.159 29.1861 168.159C29.8338 168.159 30.3944 168.263 30.8679 168.472C31.3414 168.68 31.7069 168.968 31.9645 169.335C32.2259 169.703 32.3565 170.125 32.3565 170.602C32.3565 171.083 32.2126 171.477 31.9247 171.784C31.6406 172.087 31.2694 172.305 30.8111 172.438V172.528C31.1482 172.551 31.4474 172.653 31.7088 172.835C31.9702 173.017 32.1747 173.258 32.3224 173.557C32.4702 173.856 32.544 174.195 32.544 174.574C32.544 175.108 32.3963 175.57 32.1009 175.96C31.8092 176.35 31.4039 176.652 30.8849 176.864C30.3698 177.072 29.7808 177.176 29.1179 177.176C28.474 177.176 27.8963 177.076 27.3849 176.875C26.8774 176.67 26.474 176.383 26.1747 176.011C25.8793 175.64 25.7221 175.201 25.7031 174.693ZM36.8381 177.193C36.285 177.193 35.785 177.091 35.3381 176.886C34.8911 176.678 34.5369 176.377 34.2756 175.983C34.018 175.589 33.8892 175.106 33.8892 174.534C33.8892 174.042 33.9839 173.636 34.1733 173.318C34.3627 173 34.6184 172.748 34.9403 172.562C35.2623 172.377 35.6222 172.237 36.0199 172.142C36.4176 172.047 36.8229 171.975 37.2358 171.926C37.7585 171.866 38.1828 171.816 38.5085 171.778C38.8343 171.737 39.071 171.67 39.2188 171.58C39.3665 171.489 39.4403 171.341 39.4403 171.136V171.097C39.4403 170.6 39.3002 170.216 39.0199 169.943C38.7434 169.67 38.3305 169.534 37.7812 169.534C37.2093 169.534 36.7585 169.661 36.429 169.915C36.1032 170.165 35.8778 170.443 35.7528 170.75L34.1562 170.386C34.3456 169.856 34.6222 169.428 34.9858 169.102C35.3532 168.773 35.7756 168.534 36.2528 168.386C36.7301 168.235 37.232 168.159 37.7585 168.159C38.107 168.159 38.4763 168.201 38.8665 168.284C39.2604 168.364 39.6278 168.511 39.9688 168.727C40.3134 168.943 40.5956 169.252 40.8153 169.653C41.035 170.051 41.1449 170.568 41.1449 171.205V177H39.4858V175.807H39.4176C39.3078 176.027 39.143 176.242 38.9233 176.455C38.7036 176.667 38.4214 176.843 38.0767 176.983C37.732 177.123 37.3191 177.193 36.8381 177.193ZM37.2074 175.83C37.6771 175.83 38.0786 175.737 38.4119 175.551C38.7491 175.366 39.0047 175.123 39.179 174.824C39.357 174.521 39.446 174.197 39.446 173.852V172.727C39.3854 172.788 39.268 172.845 39.0938 172.898C38.9233 172.947 38.7282 172.991 38.5085 173.028C38.2888 173.062 38.0748 173.095 37.8665 173.125C37.6581 173.152 37.4839 173.174 37.3438 173.193C37.0142 173.235 36.7131 173.305 36.4403 173.403C36.1714 173.502 35.9555 173.644 35.7926 173.83C35.6335 174.011 35.554 174.254 35.554 174.557C35.554 174.977 35.7093 175.295 36.0199 175.511C36.3305 175.723 36.7263 175.83 37.2074 175.83ZM48.9872 168.273V169.739H45.0838V177H43.4077V168.273H48.9872ZM50.7827 180.273V168.273H52.4418V169.688H52.5838C52.6823 169.506 52.8243 169.295 53.0099 169.057C53.1955 168.818 53.4531 168.61 53.7827 168.432C54.1122 168.25 54.5478 168.159 55.0895 168.159C55.794 168.159 56.4228 168.337 56.9759 168.693C57.5289 169.049 57.9626 169.562 58.277 170.233C58.5952 170.903 58.7543 171.71 58.7543 172.653C58.7543 173.597 58.5971 174.405 58.2827 175.08C57.9683 175.75 57.5365 176.267 56.9872 176.631C56.438 176.991 55.8111 177.17 55.1065 177.17C54.5762 177.17 54.1425 177.081 53.8054 176.903C53.4721 176.725 53.2107 176.517 53.0213 176.278C52.8319 176.04 52.6861 175.828 52.5838 175.642H52.4815V180.273H50.7827ZM52.4474 172.636C52.4474 173.25 52.5365 173.788 52.7145 174.25C52.8925 174.712 53.1501 175.074 53.4872 175.335C53.8243 175.593 54.2372 175.722 54.7259 175.722C55.2334 175.722 55.6577 175.587 55.9986 175.318C56.3395 175.045 56.5971 174.676 56.7713 174.21C56.9493 173.744 57.0384 173.22 57.0384 172.636C57.0384 172.061 56.9512 171.544 56.777 171.085C56.6065 170.627 56.349 170.265 56.0043 170C55.6634 169.735 55.2372 169.602 54.7259 169.602C54.2334 169.602 53.8168 169.729 53.4759 169.983C53.1387 170.237 52.883 170.591 52.7088 171.045C52.5346 171.5 52.4474 172.03 52.4474 172.636ZM61.4347 180.273C61.1809 180.273 60.9498 180.252 60.7415 180.21C60.5331 180.172 60.3778 180.131 60.2756 180.085L60.6847 178.693C60.9953 178.777 61.2718 178.813 61.5142 178.801C61.7566 178.79 61.9706 178.699 62.1562 178.528C62.3456 178.358 62.5123 178.08 62.6562 177.693L62.8665 177.114L59.6733 168.273H61.4915L63.7017 175.045H63.7926L66.0028 168.273H67.8267L64.2301 178.165C64.0634 178.619 63.8513 179.004 63.5938 179.318C63.3362 179.636 63.0294 179.875 62.6733 180.034C62.3172 180.193 61.9044 180.273 61.4347 180.273ZM68.9062 174.693H70.6449C70.6676 175.049 70.8286 175.324 71.1278 175.517C71.4309 175.71 71.8229 175.807 72.304 175.807C72.7926 175.807 73.2093 175.703 73.554 175.494C73.8987 175.282 74.071 174.955 74.071 174.511C74.071 174.246 74.0047 174.015 73.8722 173.818C73.7434 173.617 73.5597 173.462 73.321 173.352C73.0862 173.242 72.8078 173.188 72.4858 173.188H71.0653V171.852H72.4858C72.9669 171.852 73.3267 171.742 73.5653 171.523C73.804 171.303 73.9233 171.028 73.9233 170.699C73.9233 170.343 73.7945 170.057 73.5369 169.841C73.2831 169.621 72.929 169.511 72.4744 169.511C72.0123 169.511 71.6278 169.616 71.321 169.824C71.0142 170.028 70.8532 170.294 70.8381 170.619H69.1222C69.1335 170.131 69.2813 169.703 69.5653 169.335C69.8532 168.964 70.2396 168.676 70.7244 168.472C71.2131 168.263 71.768 168.159 72.3892 168.159C73.0369 168.159 73.5975 168.263 74.071 168.472C74.5445 168.68 74.91 168.968 75.1676 169.335C75.429 169.703 75.5597 170.125 75.5597 170.602C75.5597 171.083 75.4157 171.477 75.1278 171.784C74.8438 172.087 74.4725 172.305 74.0142 172.438V172.528C74.3513 172.551 74.6506 172.653 74.9119 172.835C75.1733 173.017 75.3778 173.258 75.5256 173.557C75.6733 173.856 75.7472 174.195 75.7472 174.574C75.7472 175.108 75.5994 175.57 75.304 175.96C75.0123 176.35 74.607 176.652 74.0881 176.864C73.5729 177.072 72.9839 177.176 72.321 177.176C71.6771 177.176 71.0994 177.076 70.5881 176.875C70.0805 176.67 69.6771 176.383 69.3778 176.011C69.0824 175.64 68.9252 175.201 68.9062 174.693ZM77.5014 177V168.273H79.2003V171.932H80.0185L82.8991 168.273H85.0014L81.6207 172.517L85.0412 177H82.9332L80.3026 173.511H79.2003V177H77.5014ZM88.0256 174.619L91.8722 168.273H93.7017V177H92.0369V170.648L88.2074 177H86.3608V168.273H88.0256V174.619ZM103.976 179.972V165.364H105.675V179.972H103.976ZM103.976 177.176C103.358 177.176 102.796 177.07 102.288 176.858C101.781 176.642 101.343 176.335 100.976 175.938C100.608 175.54 100.324 175.064 100.124 174.511C99.9266 173.958 99.8281 173.347 99.8281 172.676C99.8281 171.998 99.9266 171.383 100.124 170.83C100.324 170.277 100.608 169.801 100.976 169.403C101.343 169.006 101.781 168.699 102.288 168.483C102.796 168.267 103.358 168.159 103.976 168.159H104.396V177.176H103.976ZM103.976 175.744H104.214V169.591H103.976C103.567 169.591 103.211 169.674 102.908 169.841C102.605 170.004 102.353 170.229 102.152 170.517C101.951 170.801 101.8 171.129 101.697 171.5C101.599 171.871 101.55 172.263 101.55 172.676C101.55 173.229 101.639 173.739 101.817 174.205C101.995 174.667 102.264 175.04 102.624 175.324C102.983 175.604 103.434 175.744 103.976 175.744ZM105.675 177.176H105.249V168.159H105.675C106.292 168.159 106.855 168.267 107.362 168.483C107.87 168.699 108.305 169.006 108.669 169.403C109.036 169.801 109.319 170.277 109.516 170.83C109.716 171.383 109.817 171.998 109.817 172.676C109.817 173.347 109.716 173.958 109.516 174.511C109.319 175.064 109.036 175.54 108.669 175.938C108.305 176.335 107.87 176.642 107.362 176.858C106.855 177.07 106.292 177.176 105.675 177.176ZM105.675 175.744C106.084 175.744 106.44 175.665 106.743 175.506C107.046 175.343 107.298 175.119 107.499 174.835C107.699 174.547 107.849 174.22 107.947 173.852C108.046 173.481 108.095 173.089 108.095 172.676C108.095 172.127 108.006 171.619 107.828 171.153C107.654 170.684 107.387 170.307 107.027 170.023C106.667 169.735 106.216 169.591 105.675 169.591H105.43V175.744H105.675ZM114.244 177.193C113.691 177.193 113.191 177.091 112.744 176.886C112.297 176.678 111.943 176.377 111.682 175.983C111.424 175.589 111.295 175.106 111.295 174.534C111.295 174.042 111.39 173.636 111.58 173.318C111.769 173 112.025 172.748 112.347 172.562C112.669 172.377 113.028 172.237 113.426 172.142C113.824 172.047 114.229 171.975 114.642 171.926C115.165 171.866 115.589 171.816 115.915 171.778C116.241 171.737 116.477 171.67 116.625 171.58C116.773 171.489 116.847 171.341 116.847 171.136V171.097C116.847 170.6 116.706 170.216 116.426 169.943C116.15 169.67 115.737 169.534 115.188 169.534C114.616 169.534 114.165 169.661 113.835 169.915C113.509 170.165 113.284 170.443 113.159 170.75L111.562 170.386C111.752 169.856 112.028 169.428 112.392 169.102C112.759 168.773 113.182 168.534 113.659 168.386C114.136 168.235 114.638 168.159 115.165 168.159C115.513 168.159 115.883 168.201 116.273 168.284C116.667 168.364 117.034 168.511 117.375 168.727C117.72 168.943 118.002 169.252 118.222 169.653C118.441 170.051 118.551 170.568 118.551 171.205V177H116.892V175.807H116.824C116.714 176.027 116.549 176.242 116.33 176.455C116.11 176.667 115.828 176.843 115.483 176.983C115.138 177.123 114.725 177.193 114.244 177.193ZM114.614 175.83C115.083 175.83 115.485 175.737 115.818 175.551C116.155 175.366 116.411 175.123 116.585 174.824C116.763 174.521 116.852 174.197 116.852 173.852V172.727C116.792 172.788 116.674 172.845 116.5 172.898C116.33 172.947 116.134 172.991 115.915 173.028C115.695 173.062 115.481 173.095 115.273 173.125C115.064 173.152 114.89 173.174 114.75 173.193C114.42 173.235 114.119 173.305 113.847 173.403C113.578 173.502 113.362 173.644 113.199 173.83C113.04 174.011 112.96 174.254 112.96 174.557C112.96 174.977 113.116 175.295 113.426 175.511C113.737 175.723 114.133 175.83 114.614 175.83ZM122.479 174.619L126.325 168.273H128.155V177H126.49V170.648L122.661 177H120.814V168.273H122.479V174.619ZM125.598 165.318H126.996C126.996 165.958 126.768 166.479 126.314 166.881C125.863 167.278 125.253 167.477 124.484 167.477C123.719 167.477 123.111 167.278 122.661 166.881C122.21 166.479 121.984 165.958 121.984 165.318H123.376C123.376 165.602 123.46 165.854 123.626 166.074C123.793 166.29 124.079 166.398 124.484 166.398C124.882 166.398 125.166 166.29 125.337 166.074C125.511 165.858 125.598 165.606 125.598 165.318ZM129.751 177L129.746 175.528H130.058C130.301 175.528 130.503 175.477 130.666 175.375C130.833 175.269 130.969 175.091 131.075 174.841C131.181 174.591 131.263 174.246 131.32 173.807C131.376 173.364 131.418 172.807 131.445 172.136L131.598 168.273H137.689V177H136.024V169.739H133.172L133.036 172.705C133.001 173.424 132.928 174.053 132.814 174.591C132.704 175.129 132.543 175.578 132.331 175.938C132.119 176.294 131.846 176.561 131.513 176.739C131.179 176.913 130.774 177 130.297 177H129.751ZM142.494 177.193C141.941 177.193 141.441 177.091 140.994 176.886C140.547 176.678 140.193 176.377 139.932 175.983C139.674 175.589 139.545 175.106 139.545 174.534C139.545 174.042 139.64 173.636 139.83 173.318C140.019 173 140.275 172.748 140.597 172.562C140.919 172.377 141.278 172.237 141.676 172.142C142.074 172.047 142.479 171.975 142.892 171.926C143.415 171.866 143.839 171.816 144.165 171.778C144.491 171.737 144.727 171.67 144.875 171.58C145.023 171.489 145.097 171.341 145.097 171.136V171.097C145.097 170.6 144.956 170.216 144.676 169.943C144.4 169.67 143.987 169.534 143.438 169.534C142.866 169.534 142.415 169.661 142.085 169.915C141.759 170.165 141.534 170.443 141.409 170.75L139.812 170.386C140.002 169.856 140.278 169.428 140.642 169.102C141.009 168.773 141.432 168.534 141.909 168.386C142.386 168.235 142.888 168.159 143.415 168.159C143.763 168.159 144.133 168.201 144.523 168.284C144.917 168.364 145.284 168.511 145.625 168.727C145.97 168.943 146.252 169.252 146.472 169.653C146.691 170.051 146.801 170.568 146.801 171.205V177H145.142V175.807H145.074C144.964 176.027 144.799 176.242 144.58 176.455C144.36 176.667 144.078 176.843 143.733 176.983C143.388 177.123 142.975 177.193 142.494 177.193ZM142.864 175.83C143.333 175.83 143.735 175.737 144.068 175.551C144.405 175.366 144.661 175.123 144.835 174.824C145.013 174.521 145.102 174.197 145.102 173.852V172.727C145.042 172.788 144.924 172.845 144.75 172.898C144.58 172.947 144.384 172.991 144.165 173.028C143.945 173.062 143.731 173.095 143.523 173.125C143.314 173.152 143.14 173.174 143 173.193C142.67 173.235 142.369 173.305 142.097 173.403C141.828 173.502 141.612 173.644 141.449 173.83C141.29 174.011 141.21 174.254 141.21 174.557C141.21 174.977 141.366 175.295 141.676 175.511C141.987 175.723 142.383 175.83 142.864 175.83Z" fill="#101010"/>
</svg>
